<svg xmlns="http://www.w3.org/2000/svg" xmlns:svg="http://www.w3.org/2000/svg" id="svg2" width="11in" height="816" version="1.1" viewBox="0 0 1056 816" xml:space="preserve"><metadata id="metadata8"/><defs id="defs6"><clipPath id="clipPath20" clipPathUnits="userSpaceOnUse"><path id="path18" d="M 0,702 H 336 V 0 H 0 Z"/></clipPath><clipPath id="clipPath428" clipPathUnits="userSpaceOnUse"><path id="path426" d="M 0,0 H 336 V 702 H 0 Z"/></clipPath><clipPath id="clipPath498" clipPathUnits="userSpaceOnUse"><path id="path496" d="M 0,0 H 336 V 702 H 0 Z"/></clipPath></defs><g id="g10" transform="matrix(1.3333333,0,0,-1.3333333,0,816)"><g id="g12" transform="matrix(0.88263821,0,0,0.88169241,78.596376,-1.0453419)"><g id="g14"><g id="g16" clip-path="url(#clipPath20)"><g id="g22" transform="translate(-30.65,656.75)"><path id="path24" d="M 0,0 H 36" style="opacity:1;fill:none;stroke:#000;stroke-width:.5;stroke-linecap:butt;stroke-linejoin:miter;stroke-miterlimit:4;stroke-dasharray:9.6,3.6;stroke-dashoffset:0;stroke-opacity:1"/></g><g id="g26" transform="translate(329.5,656.75)"><path id="path28" d="M 0,0 H 36" style="opacity:1;fill:none;stroke:#000;stroke-width:.5;stroke-linecap:butt;stroke-linejoin:miter;stroke-miterlimit:4;stroke-dasharray:9.6,3.6;stroke-dashoffset:0;stroke-opacity:1"/></g><g id="g30" transform="translate(-30.8,44.75)"><path id="path32" d="M 0,0 H 36" style="opacity:1;fill:none;stroke:#000;stroke-width:.5;stroke-linecap:butt;stroke-linejoin:miter;stroke-miterlimit:4;stroke-dasharray:9.6,3.6;stroke-dashoffset:0;stroke-opacity:1"/></g><g id="g34" transform="translate(329.35,44.75)"><path id="path36" d="M 0,0 H 36" style="opacity:1;fill:none;stroke:#000;stroke-width:.5;stroke-linecap:butt;stroke-linejoin:miter;stroke-miterlimit:4;stroke-dasharray:9.6,3.6;stroke-dashoffset:0;stroke-opacity:1"/></g></g></g></g><g id="g38" transform="matrix(0.88299639,0,0,-1.537359,226.87959,308.4287)"><path id="path40" d="m -153.812,62.418 h 307.5 V 14.874 h -307.5 z" style="opacity:1;fill:none;stroke:#000;stroke-width:.5;stroke-linecap:butt;stroke-linejoin:miter;stroke-miterlimit:4;stroke-dasharray:none;stroke-opacity:1"/></g><path id="path42" d="M 92.386715,288.81104 H 361.2595 V 418.86068 H 92.386715 Z" style="opacity:1;fill:#fff;fill-opacity:1;fill-rule:evenodd;stroke:#000;stroke-width:3.08757806;stroke-linecap:butt;stroke-linejoin:miter;stroke-miterlimit:4;stroke-dasharray:none;stroke-opacity:1"/><path id="path44" d="M 92.497927,507.40464 H 362.36456 v 19.24558 H 92.497927 Z" style="opacity:1;fill:#fff;fill-opacity:1;fill-rule:nonzero;stroke:none;stroke-width:.88216519"/><path id="path46" d="M 92.497927,486.97141 H 280.88558 v 21.7778 H 92.497927 Z" style="opacity:1;fill:#fff;fill-opacity:1;fill-rule:nonzero;stroke:none;stroke-width:.88216519"/><path id="path48" d="m 296.81542,237.40838 h 65.47146 v 24.98804 h -65.47146 z" style="opacity:1;fill:#fff;fill-opacity:1;fill-rule:nonzero;stroke:none;stroke-width:.88216519"/><path id="path50" d="m 257.04728,181.2913 h 105.24049 v 19.96856 H 257.04728 Z" style="opacity:1;fill:#fff;fill-opacity:1;fill-rule:nonzero;stroke:none;stroke-width:.88216519"/><text id="text54" x="187.588" y="-204.433" transform="scale(1.0005362,-0.99946407)" style="font-variant:normal;font-weight:700;font-stretch:normal;font-size:6.17515564px;font-family:'HelveticaNeueLT Std';-inkscape-font-specification:HelveticaNeueLTStd-Bd;writing-mode:lr-tb;opacity:1;fill:#000;fill-opacity:1;fill-rule:nonzero;stroke:none;stroke-width:.88216513"><tspan style="opacity:1;stroke-width:.88216513" id="tspan52" x="187.588 192.164 193.986 197.994 202.112 206.917 210.924 212.746 216.519 218.341 223.145 227.721 229.437 234.242 237.904 239.62 243.511 247.512 252.088 253.91 258.485 262.147" y="-204.433">DISPOSITION OF VEHICLE</tspan></text><path id="path56" d="M 91.173969,212.47147 H 362.43252 v 24.96071 H 91.173969 Z" style="opacity:1;fill:#fff;fill-opacity:1;fill-rule:nonzero;stroke:none;stroke-width:.88216519"/><path id="path58" d="M 91.062758,102.60818 H 362.58345 v 98.8051 H 91.062758 Z" style="opacity:1;fill:none;stroke:#000;stroke-width:.4410826;stroke-linecap:butt;stroke-linejoin:miter;stroke-miterlimit:4;stroke-dasharray:none;stroke-opacity:1"/><path id="path60" d="m 210.67436,445.31145 h 151.91086 v 21.18707 H 210.67436 Z" style="opacity:1;fill:#fff;fill-opacity:1;fill-rule:nonzero;stroke:none;stroke-width:.88216519"/><g id="g62" transform="matrix(0.88263821,0,0,0.88169241,210.45016,445.04693)"><path id="path64" d="M 0,0 V 24.618" style="opacity:1;fill:none;stroke:#000;stroke-width:.5;stroke-linecap:butt;stroke-linejoin:miter;stroke-miterlimit:4;stroke-dasharray:none;stroke-opacity:1"/></g><g id="g66" transform="matrix(0.88263821,0,0,0.88169241,240.89704,445.13687)"><path id="path68" d="M 0,0 V 11.556" style="opacity:1;fill:none;stroke:#000;stroke-width:.5;stroke-linecap:butt;stroke-linejoin:miter;stroke-miterlimit:4;stroke-dasharray:none;stroke-opacity:1"/></g><g id="g70" transform="matrix(0.88263821,0,0,0.88169241,225.73684,445.13687)"><path id="path72" d="M 0,0 V 7.38" style="opacity:1;fill:none;stroke:#000;stroke-width:.5;stroke-linecap:butt;stroke-linejoin:miter;stroke-miterlimit:4;stroke-dasharray:none;stroke-opacity:1"/></g><text id="text80" x="92.669" y="-460.605" transform="scale(1.0005362,-0.99946407)" style="font-variant:normal;font-weight:400;font-stretch:normal;font-size:5.29299116px;font-family:'HelveticaNeueLT Std';-inkscape-font-specification:HelveticaNeueLTStd-Roman;writing-mode:lr-tb;opacity:1;fill:#000;fill-opacity:1;fill-rule:nonzero;stroke:none;stroke-width:.88216513"><tspan style="opacity:1;stroke-width:.88216513" id="tspan74" x="92.669 96.099 99.92 103.943 107.764 110.999 112.47 116.292 120.113 124.723 128.349 131.583 135.209" y="-460.605">PHONE NUMBER </tspan><tspan style="opacity:1;stroke-width:.88216513" id="tspan76" x="213.243 216.673 220.495 223.242 224.713 228.535 232.557 236.284" y="-460.685">PUJ CODE</tspan><tspan style="opacity:1;stroke-width:.88216513" id="tspan78" x="94.405 97.348 101.371 105.192 108.135 111.173 112.544 116.567 120.388 121.86 125.882 128.921 130.392 133.822 137.056 140.486 144.307 147.541 149.013 153.035 156.074 159.112 160.483 164.304 167.538 171.164 172.635 176.065 177.537 181.162 184.396 188.419 192.241 195.475 198.905 201.943 203.414 206.452 210.475 214.101 215.572 219.002 222.824 226.449 230.075 233.309 237.131 240.857 244.091 247.716 249.188 253.211 256.249 257.72 261.447 265.072 266.443 269.677 272.911 276.537 278.008 281.438 282.91 285.852 287.223 291.045 294.279 298.1 301.922" y="-278.897">LOCATION OF PEACE OFFICER’S REQUEST FOR SURRENDER OF DRIVER’S LICENCE</tspan></text><g id="g82" transform="matrix(0.88976754,0,0,-0.88169241,226.87959,308.4287)"><g id="g84" transform="translate(-152.1536,51.8587)"><path id="path86" d="M 0,0 H 304.5" style="opacity:1;fill:none;stroke:#000;stroke-width:.5;stroke-linecap:butt;stroke-linejoin:miter;stroke-miterlimit:4;stroke-dasharray:none;stroke-opacity:1"/></g></g><g id="g88" transform="matrix(0.88976754,0,0,-0.88169241,226.87959,308.4287)"><g id="g90" transform="translate(-152.4036,80.4587)"><path id="path92" d="M 0,0 H 304.75" style="opacity:1;fill:none;stroke:#000;stroke-width:.5;stroke-linecap:butt;stroke-linejoin:miter;stroke-miterlimit:4;stroke-dasharray:none;stroke-opacity:1"/></g></g><text id="text98" x="94.404" y="-257.082" transform="scale(1.0005362,-0.99946407)" style="font-variant:normal;font-weight:400;font-stretch:normal;font-size:5.29299116px;font-family:'HelveticaNeueLT Std';-inkscape-font-specification:HelveticaNeueLTStd-Roman;writing-mode:lr-tb;opacity:1;fill:#000;fill-opacity:1;fill-rule:nonzero;stroke:none;stroke-width:.88216513"><tspan style="opacity:1;stroke-width:.88216513" id="tspan94" x="94.404 97.834 99.205 103.222 107.044 109.987 113.025 116.847 120.472 123.706 125.178 129.201 132.239 133.71 137.14 140.374 143.804 147.625 150.859 152.331 156.354 159.392 162.43 163.801 167.622 170.856 174.482 175.953 177.324 180.754 184.184 188.006 189.376 193.198 197.215 198.687 202.117 205.938 209.368 212.798 216.032 219.854 223.283 224.654 228.677 232.499 233.97 237.792 241.814 244.852 246.223 250.045 253.279 301.419 305.044 308.474 312.2 316.218 319.452 320.923 324.745 328.566 333.176 336.802 340.036" y="-257.082">SIGNATURE OF PEACE OFFICER ISSUING SUSPENSION NOTICE BADGE NUMBER</tspan><tspan style="opacity:1;stroke-width:.88216513" id="tspan96" x="94.404 97.834 101.857 104.8 106.171 109.992 113.226 114.698 118.128 122.145 125.379 129.201 133.022 136.452 137.923 141.946 145.572 147.043 150.669 154.49 159.101 162.53 164.002 167.823 171.645 173.016 176.054 261.134 264.563 268.581 271.815 275.636 279.458 282.888 284.359 287.397 288.768 291.711 294.945 296.417 300.238 304.06 308.67 312.296 315.53" y="-232.03">POLICE AGENCY OR RCMP UNIT AGENCY FILE NUMBER</tspan></text><g id="g100" transform="matrix(0.88263821,0,0,0.88169241,123.4344,181.00122)"><path id="path102" d="M 0,0 V 22.85" style="opacity:1;fill:none;stroke:#000;stroke-width:.5;stroke-linecap:butt;stroke-linejoin:miter;stroke-miterlimit:4;stroke-dasharray:none;stroke-opacity:1"/></g><g id="g104" transform="matrix(0.88263821,0,0,0.88169241,170.87619,180.82488)"><path id="path106" d="M 0,0 V 22.75" style="opacity:1;fill:none;stroke:#000;stroke-width:.5;stroke-linecap:butt;stroke-linejoin:miter;stroke-miterlimit:4;stroke-dasharray:none;stroke-opacity:1"/></g><g id="g108" transform="matrix(0.88263821,0,0,0.88169241,303.53672,181.30381)"><path id="path110" d="M 0,0 V 22.457" style="opacity:1;fill:none;stroke:#000;stroke-width:.5;stroke-linecap:butt;stroke-linejoin:miter;stroke-miterlimit:4;stroke-dasharray:none;stroke-opacity:1"/></g><g id="g112" transform="matrix(0.88263821,0,0,0.88169241,214.56679,180.95714)"><path id="path114" d="M 0,0 V 22.65" style="opacity:1;fill:none;stroke:#000;stroke-width:.5;stroke-linecap:butt;stroke-linejoin:miter;stroke-miterlimit:4;stroke-dasharray:none;stroke-opacity:1"/></g><text id="text118" x="93.867" y="-115.832" transform="scale(1.0005362,-0.99946407)" style="font-variant:normal;font-weight:400;font-stretch:normal;font-size:5.29299116px;font-family:'HelveticaNeueLT Std';-inkscape-font-specification:HelveticaNeueLTStd-Roman;writing-mode:lr-tb;opacity:1;fill:#000;fill-opacity:1;fill-rule:nonzero;stroke:none;stroke-width:.88216513"><tspan style="opacity:1;stroke-width:.88216513" id="tspan116" x="93.867 97.297 98.668 102.686 106.507 109.45 112.488 116.31 119.935 123.169 124.641 128.664 131.702 133.173 136.603 139.837 143.463 146.893 150.915 154.737 156.208 159.834 163.068 166.89 170.124 171.495 174.728 176.099 179.921 183.938 185.41 188.644 191.878 195.699 197.07 200.892 203.835 207.069 240.309 244.035 246.978 250.016 253.25 254.721 258.151 261.973 265.699 267.171 270.209 271.58 276.19 279.424 280.895 284.521 287.755 290.698 293.932 297.362 300.792 304.026" y="-115.832">SIGNATURE OF PERSON RECEIVING VEHICLE DATE AND TIME RELEASED</tspan></text><text id="text122" x="93.507" y="-85.952" transform="scale(1.0005362,-0.99946407)" style="font-variant:normal;font-weight:400;font-stretch:normal;font-size:5.29299116px;font-family:'HelveticaNeueLT Std';-inkscape-font-specification:HelveticaNeueLTStd-Roman;writing-mode:lr-tb;opacity:1;fill:#000;fill-opacity:1;fill-rule:nonzero;stroke:none;stroke-width:.88216513"><tspan style="opacity:1;stroke-width:.88216513" id="tspan120" x="93.507 97.233 100.176 103.214 106.448 107.92 111.35 115.171 118.897 120.369 123.407 124.778 129.388 132.622 134.094 138.116 141.154 142.626 146.252 149.486 152.524 156.345 159.971" y="-85.952">DATE AND TIME OF RETURN</tspan></text><path id="path124" d="m 228.49394,78.43923 h 6.53152 v 6.039593 h -6.53152 z" style="opacity:1;fill:none;stroke:#000;stroke-width:.4410826;stroke-linecap:butt;stroke-linejoin:miter;stroke-miterlimit:4;stroke-dasharray:none;stroke-opacity:1"/><text id="text128" x="178.714" y="-95.325" transform="scale(1.0005362,-0.99946407)" style="font-variant:normal;font-weight:700;font-stretch:normal;font-size:6.17515564px;font-family:'HelveticaNeueLT Std';-inkscape-font-specification:HelveticaNeueLTStd-Bd;writing-mode:lr-tb;opacity:1;fill:#000;fill-opacity:1;fill-rule:nonzero;stroke:none;stroke-width:.88216513"><tspan style="opacity:1;stroke-width:.88216513" id="tspan126" x="178.714 183.173 187.174 190.947 195.523 199.981 204.557 206.274 211.078 214.74 216.457 221.032 225.491 227.313 231.203 235.204 239.663 241.38 245.387 247.104 250.766 252.587 257.163 261.165 265.741 270.316" y="-95.325">RETURN OF DRIVER’S LICENCE</tspan></text><g id="g130" transform="matrix(0.88263821,0,0,0.88169241,236.31412,102.26609)"><path id="path132" d="M 0,0 V 21.3" style="opacity:1;fill:none;stroke:#000;stroke-width:.5;stroke-linecap:butt;stroke-linejoin:miter;stroke-miterlimit:4;stroke-dasharray:none;stroke-opacity:1"/></g><g id="g134" transform="matrix(0.88263821,0,0,0.88169241,325.60268,102.26609)"><path id="path136" d="M 0,0 V 12.1" style="opacity:1;fill:none;stroke:#000;stroke-width:.5;stroke-linecap:butt;stroke-linejoin:miter;stroke-miterlimit:4;stroke-dasharray:none;stroke-opacity:1"/></g><path id="path138" d="m 292.70675,78.306976 h 6.53153 v 6.039593 h -6.53153 z" style="opacity:1;fill:none;stroke:#000;stroke-width:.4410826;stroke-linecap:butt;stroke-linejoin:miter;stroke-miterlimit:4;stroke-dasharray:none;stroke-opacity:1"/><text id="text148" x="93.919" y="-175.202" transform="scale(1.0005362,-0.99946407)" style="font-variant:normal;font-weight:400;font-stretch:normal;font-size:5.29299116px;font-family:'HelveticaNeueLT Std';-inkscape-font-specification:HelveticaNeueLTStd-Roman;writing-mode:lr-tb;opacity:1;fill:#000;fill-opacity:1;fill-rule:nonzero;stroke:none;stroke-width:.88216513"><tspan style="opacity:1;stroke-width:.88216513" id="tspan140" x="93.919 96.862 100.885 104.706 107.649 110.687 112.058 116.081 119.902 121.374 125.397 128.435 129.906 133.437 136.671 140.101" y="-175.202">LOCATION OF KEYS</tspan><tspan style="opacity:1;stroke-width:.88216513" id="tspan142" x="93.919 97.153 100.387 104.209 105.58 109.401 112.344 115.578 117.05 120.675 123.909 126.852 130.086 133.516 136.946 140.18 143.906 145.378 148.416 152.439 153.91 155.281 158.711 161.654 164.888 168.317 171.747 174.981 176.453 179.883 183.508 184.879 188.701 191.739" y="-134.975">VEHICLE RELEASED TO (PLEASE PRINT)</tspan><tspan style="opacity:1;stroke-width:.88216513" id="tspan144" x="94.406 97.349 101.372 105.193 108.136 111.174 112.545 116.568 120.389 121.861 125.884 128.922 130.393 133.627 136.861 140.683 142.054 145.875 148.818" y="-155.089">LOCATION OF VEHICLE</tspan><tspan style="opacity:1;stroke-width:.88216513" id="tspan146" x="93.295 96.92 100.154 103.192 107.014 110.64 114.461 115.832 119.654 123.671 125.143 129.165 132.203 135.242 136.612 140.434 143.668 147.294 226.281 229.907 233.141 236.962 240.196 241.567 244.997 248.035 249.507 253.529 256.567 258.039 260.982 262.353 266.174 269.408 273.23 277.051 280.285 281.757 285.187 289.008 292.539 296.36 300.383 305.284 308.227 311.461 315.187 319.205 322.439" y="-65.526">RETURNING OFFICER RECEIPT OF LICENCE ACKNOWLEDGED</tspan></text><g id="g150" transform="matrix(0.88263821,0,0,0.88169241,223.51197,52.517472)"><path id="path152" d="M 0,0 V 44.4" style="opacity:1;fill:none;stroke:#000;stroke-width:.5;stroke-linecap:butt;stroke-linejoin:miter;stroke-miterlimit:4;stroke-dasharray:none;stroke-opacity:1"/></g><g id="g154" transform="matrix(0.88263821,0,0,0.88169241,296.78455,237.48896)"><path id="path156" d="M 0,0 V 28.55" style="opacity:1;fill:none;stroke:#000;stroke-width:.5;stroke-linecap:butt;stroke-linejoin:miter;stroke-miterlimit:4;stroke-dasharray:none;stroke-opacity:1"/></g><g id="g158" transform="matrix(0.88810474,0,0,-0.88169241,226.87959,308.4287)"><g id="g160" transform="translate(-152.6546,-179.35)"><path id="path162" d="M 0,0 H 305.624" style="opacity:1;fill:none;stroke:#000;stroke-width:.5;stroke-linecap:butt;stroke-linejoin:miter;stroke-miterlimit:4;stroke-dasharray:none;stroke-opacity:1"/></g></g><g id="g164" transform="matrix(0.88810474,0,0,-0.88169241,226.87959,308.4287)"><g id="g166" transform="translate(-152.6546,-155.25)"><path id="path168" d="M 0,0 305.724,0.05" style="opacity:1;fill:none;stroke:#000;stroke-width:.5;stroke-linecap:butt;stroke-linejoin:miter;stroke-miterlimit:4;stroke-dasharray:none;stroke-opacity:1"/></g></g><text id="text174" x="99.726" y="-481.072" transform="scale(1.0005362,-0.99946407)" style="font-variant:normal;font-weight:400;font-stretch:normal;font-size:5.29299116px;font-family:'HelveticaNeueLT Std';-inkscape-font-specification:HelveticaNeueLTStd-Roman;writing-mode:lr-tb;opacity:1;fill:#000;fill-opacity:1;fill-rule:nonzero;stroke:none;stroke-width:.88216513"><tspan style="opacity:1;stroke-width:.88216513" id="tspan170" x="99.726 103.156 106.882 110.609 114.234 117.468 120.898 124.328 125.799 127.17 130.6 133.638 137.264 140.498 143.732 146.77 148.141 222.349 226.17 227.541 230.58 234.009 235.772 240.382 244.204 248.025 249.396 253.218 254.589 257.626 261.056 263.999 265.37 268.408 271.838 296.16 299.59 303.612 307.042 309.593 313.023 315.966 317.438 321.259 325.282 329.008" y="-481.072">ADDRESS (STREET) CITY/MUNICIPALITY POSTAL CODE</tspan><tspan style="opacity:1;stroke-width:.88216513" id="tspan172" x="93.428 98.038 101.272 104.215 107.158 110.1 113.043 114.515 115.886 118.829 121.772 124.714 127.657 130.6 133.543" y="-46.162">MV2906 (102018)</tspan></text><g id="g176" transform="matrix(0.88263821,0,0,0.88169241,102.51587,302.74179)"><path id="path178" d="M 0,0 H 228.1" style="opacity:1;fill:none;stroke:#000;stroke-width:.5;stroke-linecap:butt;stroke-linejoin:miter;stroke-miterlimit:4;stroke-dasharray:none;stroke-opacity:1"/></g><g id="g180" transform="matrix(0.88263821,0,0,0.88169241,179.53488,325.53353)"><path id="path182" d="M 0,0 H 56.69" style="opacity:1;fill:none;stroke:#000;stroke-width:.5;stroke-linecap:butt;stroke-linejoin:miter;stroke-miterlimit:4;stroke-dasharray:none;stroke-opacity:1"/></g><g id="g184" transform="matrix(0.88263821,0,0,0.88169241,252.16718,325.09269)"><path id="path186" d="M 0,0 H 61.35" style="opacity:1;fill:none;stroke:#000;stroke-width:.5;stroke-linecap:butt;stroke-linejoin:miter;stroke-miterlimit:4;stroke-dasharray:none;stroke-opacity:1"/></g><g id="g188" transform="matrix(0.88263821,0,0,0.88169241,325.95485,325.22494)"><path id="path190" d="M 0,0 H 32.775" style="opacity:1;fill:none;stroke:#000;stroke-width:.5;stroke-linecap:butt;stroke-linejoin:miter;stroke-miterlimit:4;stroke-dasharray:none;stroke-opacity:1"/></g><g id="g192" transform="matrix(0.88263821,0,0,0.88169241,102.4276,325.22494)"><path id="path194" d="M 0,0 H 33.75" style="opacity:1;fill:none;stroke:#000;stroke-width:.5;stroke-linecap:butt;stroke-linejoin:miter;stroke-miterlimit:4;stroke-dasharray:none;stroke-opacity:1"/></g><text id="text206" x="93.419" y="-196.257" transform="scale(1.0005362,-0.99946407)" style="font-variant:normal;font-weight:400;font-stretch:normal;font-size:5.29299116px;font-family:'HelveticaNeueLT Std';-inkscape-font-specification:HelveticaNeueLTStd-Roman;writing-mode:lr-tb;opacity:1;fill:#000;fill-opacity:1;fill-rule:nonzero;stroke:none;stroke-width:.88216513"><tspan style="opacity:1;stroke-width:.88216513" id="tspan196" x="93.419 96.849 100.083 103.512" y="-196.257">YEAR</tspan><tspan style="opacity:1;stroke-width:.88216513" id="tspan198" x="126.039 130.65 134.079 137.61" y="-196.035">MAKE</tspan><tspan style="opacity:1;stroke-width:.88216513" id="tspan200" x="173.359 177.969 181.992 185.718 188.952" y="-195.41">MODEL</tspan><tspan style="opacity:1;stroke-width:.88216513" id="tspan202" x="216.502 220.323 224.346 227.289 231.312 235.133" y="-196.035">COLOUR</tspan><tspan style="opacity:1;stroke-width:.88216513" id="tspan204" x="260.227 263.657 267.283 271.306 274.54 276.302 279.732 282.283 285.226 288.264 306.319 309.553 312.787 316.608 317.979 321.801 324.744 327.978 329.449 332.392 333.763 337.584 339.056 340.527 344.349 348.372" y="-195.41">PROV/STATEVEHICLE LIC. NO.</tspan></text><g id="g208" transform="matrix(0.88263821,0,0,0.88169241,257.06582,181.3539)"><path id="path210" d="M 0,0 V 22.5" style="opacity:1;fill:none;stroke:#000;stroke-width:.5;stroke-linecap:butt;stroke-linejoin:miter;stroke-miterlimit:4;stroke-dasharray:none;stroke-opacity:1"/></g><g id="g212" transform="matrix(0.88299639,0,0,-0.88169241,226.87959,308.4287)"><g id="g214" transform="translate(-153.7443,268.75)"><path id="path216" d="M 0,0 H 307.383" style="opacity:1;fill:none;stroke:#000;stroke-width:.5;stroke-linecap:butt;stroke-linejoin:miter;stroke-miterlimit:4;stroke-dasharray:none;stroke-opacity:1"/></g></g><g id="g218" transform="matrix(0.88763536,0,0,-0.88169241,226.87959,308.4287)"><g id="g220" transform="translate(-152.698,212.326)"><path id="path222" d="M 0,0 H 304.75" style="opacity:1;fill:none;stroke:#000;stroke-width:.5;stroke-linecap:butt;stroke-linejoin:miter;stroke-miterlimit:4;stroke-dasharray:none;stroke-opacity:1"/></g></g><g id="g224" transform="matrix(0.88763536,0,0,-0.88169241,226.87959,308.4287)"><g id="g226" transform="translate(-152.698,144.376)"><path id="path228" d="M 0,0 H 304.85" style="opacity:1;fill:none;stroke:#000;stroke-width:.5;stroke-linecap:butt;stroke-linejoin:miter;stroke-miterlimit:4;stroke-dasharray:none;stroke-opacity:1"/></g></g><g id="g230" transform="matrix(0.88763536,0,0,-0.88169241,226.87959,308.4287)"><g id="g232" transform="translate(-152.698,167.3183)"><path id="path234" d="M 0,0 H 304.85" style="opacity:1;fill:none;stroke:#000;stroke-width:.5;stroke-linecap:butt;stroke-linejoin:miter;stroke-miterlimit:4;stroke-dasharray:none;stroke-opacity:1"/></g></g><g id="g236" transform="matrix(0.88763536,0,0,-0.88169241,226.87959,308.4287)"><g id="g238" transform="translate(-152.5249,190.3375)"><path id="path240" d="M 0,0 H 304.85" style="opacity:1;fill:none;stroke:#000;stroke-width:.5;stroke-linecap:butt;stroke-linejoin:miter;stroke-miterlimit:4;stroke-dasharray:none;stroke-opacity:1"/></g></g><g id="g242" transform="matrix(0.88263821,0,0,0.88169241,257.55126,212.58115)"><path id="path244" d="M 0,0 V 28.55" style="opacity:1;fill:none;stroke:#000;stroke-width:.5;stroke-linecap:butt;stroke-linejoin:miter;stroke-miterlimit:4;stroke-dasharray:none;stroke-opacity:1"/></g><g id="g246" transform="matrix(0.78052411,0,0,-0.88169241,226.87959,308.4287)"><g id="g248" transform="translate(95.1815,-202.2863)"><path id="path250" d="M 0,0 V -2.9" style="opacity:1;fill:none;stroke:#000;stroke-width:.25;stroke-linecap:butt;stroke-linejoin:miter;stroke-miterlimit:4;stroke-dasharray:none;stroke-opacity:1"/></g></g><g id="g252" transform="matrix(0.78052411,0,0,-0.88169241,226.87959,308.4287)"><g id="g254" transform="translate(108.2651,-202.2863)"><path id="path256" d="M 0,0 V -2.9" style="opacity:1;fill:none;stroke:#000;stroke-width:.25;stroke-linecap:butt;stroke-linejoin:miter;stroke-miterlimit:4;stroke-dasharray:none;stroke-opacity:1"/></g></g><g id="g258" transform="matrix(0.78052411,0,0,-0.88169241,226.87959,308.4287)"><g id="g260" transform="translate(82.098,-202.2863)"><path id="path262" d="M 0,0 V -2.9" style="opacity:1;fill:none;stroke:#000;stroke-width:.25;stroke-linecap:butt;stroke-linejoin:miter;stroke-miterlimit:4;stroke-dasharray:none;stroke-opacity:1"/></g></g><g id="g264" transform="matrix(0.78052411,0,0,-0.88169241,226.87959,308.4287)"><g id="g266" transform="translate(147.5158,-202.2863)"><path id="path268" d="M 0,0 V -5.6" style="opacity:1;fill:none;stroke:#000;stroke-width:.25;stroke-linecap:butt;stroke-linejoin:miter;stroke-miterlimit:4;stroke-dasharray:none;stroke-opacity:1"/></g></g><g id="g270" transform="matrix(0.78052411,0,0,-0.88169241,226.87959,308.4287)"><g id="g272" transform="translate(160.5993,-202.2863)"><path id="path274" d="M 0,0 V -2.9" style="opacity:1;fill:none;stroke:#000;stroke-width:.25;stroke-linecap:butt;stroke-linejoin:miter;stroke-miterlimit:4;stroke-dasharray:none;stroke-opacity:1"/></g></g><g id="g276" transform="matrix(0.78052411,0,0,-0.88169241,226.87959,308.4287)"><g id="g278" transform="translate(121.3487,-202.2863)"><path id="path280" d="M 0,0 V -5.55" style="opacity:1;fill:none;stroke:#000;stroke-width:.25;stroke-linecap:butt;stroke-linejoin:miter;stroke-miterlimit:4;stroke-dasharray:none;stroke-opacity:1"/></g></g><g id="g282" transform="matrix(0.78052411,0,0,-0.88169241,226.87959,308.4287)"><g id="g284" transform="translate(134.4322,-202.2863)"><path id="path286" d="M 0,0 V -2.9" style="opacity:1;fill:none;stroke:#000;stroke-width:.25;stroke-linecap:butt;stroke-linejoin:miter;stroke-miterlimit:4;stroke-dasharray:none;stroke-opacity:1"/></g></g><g id="g288" transform="matrix(0.8744528,0,0,-0.88169241,226.87959,308.4287)"><g id="g290" transform="translate(-149.514,-225.35)"><path id="path292" d="M 0,0 H 304.538" style="opacity:1;fill:none;stroke:#000;stroke-width:.5;stroke-linecap:butt;stroke-linejoin:miter;stroke-miterlimit:4;stroke-dasharray:none;stroke-opacity:1"/></g></g><g id="g294" transform="matrix(0.8744528,0,0,-0.88169241,226.87959,308.4287)"><g id="g296" transform="translate(-150.114,-202.1)"><path id="path298" d="M 0,0 H 305.178" style="opacity:1;fill:none;stroke:#000;stroke-width:.5;stroke-linecap:butt;stroke-linejoin:miter;stroke-miterlimit:4;stroke-dasharray:none;stroke-opacity:1"/></g></g><path id="path300" d="m 90.95331,466.33981 h 6.205829 v 60.13407 H 90.95331 Z" style="opacity:1;fill:#000;fill-opacity:1;fill-rule:nonzero;stroke:none;stroke-width:.88216519"/><text id="text318" x="92.736" y="-517.279" transform="scale(1.0005362,-0.99946407)" style="font-variant:normal;font-weight:700;font-stretch:condensed;font-size:5.29299116px;font-family:'HelveticaNeueLT Std Cn';-inkscape-font-specification:HelveticaNeueLTStd-BdCn;writing-mode:lr-tb;opacity:1;fill:#fff;fill-opacity:1;fill-rule:nonzero;stroke:none;stroke-width:.88216513"><tspan style="opacity:1;stroke-width:.88216513" id="tspan302" x="92.736" y="-517.279">T</tspan><tspan style="opacity:1;stroke-width:.88216513" id="tspan304" x="92.534" y="-511.986">O</tspan><tspan style="opacity:1;stroke-width:.88216513" id="tspan306" x="92.487" y="-498.753">D</tspan><tspan style="opacity:1;stroke-width:.88216513" id="tspan308" x="92.534" y="-493.46">R</tspan><tspan style="opacity:1;stroke-width:.88216513" id="tspan310" x="93.323" y="-488.167">I</tspan><tspan style="opacity:1;stroke-width:.88216513" id="tspan312" x="92.63" y="-482.874">V</tspan><tspan style="opacity:1;stroke-width:.88216513" id="tspan314" x="92.73" y="-477.581">E</tspan><tspan style="opacity:1;stroke-width:.88216513" id="tspan316" x="92.534" y="-472.288">R</tspan></text><text id="text324" x="99.754" y="-521.487" transform="scale(1.0005362,-0.99946407)" style="font-variant:normal;font-weight:400;font-stretch:normal;font-size:5.29299116px;font-family:'HelveticaNeueLT Std';-inkscape-font-specification:HelveticaNeueLTStd-Roman;writing-mode:lr-tb;opacity:1;fill:#000;fill-opacity:1;fill-rule:nonzero;stroke:none;stroke-width:.88216513"><tspan style="opacity:1;stroke-width:.88216513" id="tspan320" x="99.754 103.184 107.005 110.631 114.453 117.883 122.493 125.727 127.198 128.569 131.708 133.47 134.645 137.588 139.256 140.627 234.725 238.743 240.114 243.348 246.582" y="-521.487">SURNAME (print) GIVEN</tspan><tspan style="opacity:1;stroke-width:.88216513" id="tspan322" x="99.13 102.856 106.481 107.852 111.086 114.32 117.946 119.418 122.847 124.319 127.262 128.633 132.454 135.688 139.51 143.331 146.565 148.037 151.858 155.881 157.352 226.161 229.591 233.217 237.24 240.474 241.844 245.666 249.488 252.722 292.324 296.05 300.073 303.698 305.17 306.541 309.187 311.834 314.48 317.127 321.642 326.156 329.295 332.434" y="-502.284">DRIVER’S LICENCE NO. PROVINCE DOB (yyyymmdd)</tspan></text><g id="g326" transform="matrix(0.88263821,0,0,0.88169241,280.86069,507.16049)"><path id="path328" d="M 0,0 V -23.365" style="opacity:1;fill:none;stroke:#000;stroke-width:.5;stroke-linecap:butt;stroke-linejoin:miter;stroke-miterlimit:4;stroke-dasharray:none;stroke-opacity:1"/></g><g id="g330" transform="matrix(0.88263821,0,0,0.88169241,221.6527,507.08414)"><path id="path332" d="M 0,0 V -23.279" style="opacity:1;fill:none;stroke:#000;stroke-width:.5;stroke-linecap:butt;stroke-linejoin:miter;stroke-miterlimit:4;stroke-dasharray:none;stroke-opacity:1"/></g><g id="g334" transform="matrix(0.88263821,0,0,0.88169241,205.54296,427.69109)"><path id="path336" d="M 0,0 H 9.75" style="opacity:1;fill:none;stroke:#000;stroke-width:.32499999;stroke-linecap:butt;stroke-linejoin:miter;stroke-miterlimit:10;stroke-dasharray:none;stroke-opacity:1"/></g><text id="text340" x="151.408" y="-428.494" transform="scale(1.0005362,-0.99946407)" style="font-variant:normal;font-weight:400;font-stretch:normal;font-size:5.29299116px;font-family:'HelveticaNeueLT Std';-inkscape-font-specification:HelveticaNeueLTStd-Roman;writing-mode:lr-tb;opacity:1;fill:#000;fill-opacity:1;fill-rule:nonzero;stroke:none;stroke-width:.88216513"><tspan style="opacity:1;stroke-width:.88216513" id="tspan338" x="151.408 154.35 157.293 158.765 161.708 163.079 166.021 167.392" y="-428.494">90.3(2)</tspan></text><text id="text344" x="168.864" y="-428.494" transform="scale(1.0005362,-0.99946407)" style="font-variant:normal;font-weight:700;font-stretch:normal;font-size:5.29299116px;font-family:'HelveticaNeueLT Std';-inkscape-font-specification:HelveticaNeueLTStd-Bd;writing-mode:lr-tb;opacity:1;fill:#000;fill-opacity:1;fill-rule:nonzero;stroke:none;stroke-width:.88216513"><tspan style="opacity:1;stroke-width:.88216513" id="tspan342" x="168.864 172.489 175.628 179.55 183.668 187.59 191.708 194.847" y="-428.494">ALCOHOL</tspan></text><text id="text348" x="205.433" y="-428.494" transform="scale(1.0005362,-0.99946407)" style="font-variant:normal;font-weight:700;font-stretch:normal;font-size:5.73407364px;font-family:'HelveticaNeueLT Std';-inkscape-font-specification:HelveticaNeueLTStd-Bd;writing-mode:lr-tb;opacity:1;fill:#000;fill-opacity:1;fill-rule:nonzero;stroke:none;stroke-width:.88216513"><tspan style="opacity:1;stroke-width:.88216513" id="tspan346" x="205.433 209.894" y="-428.494">OR</tspan></text><text id="text352" x="240.096" y="-428.809" transform="scale(1.0005362,-0.99946407)" style="font-variant:normal;font-weight:400;font-stretch:normal;font-size:5.29299116px;font-family:'HelveticaNeueLT Std';-inkscape-font-specification:HelveticaNeueLTStd-Roman;writing-mode:lr-tb;opacity:1;fill:#000;fill-opacity:1;fill-rule:nonzero;stroke:none;stroke-width:.88216513"><tspan style="opacity:1;stroke-width:.88216513" id="tspan350" x="240.096 243.039 245.982 247.454 250.397 251.767 254.71 256.182 259.125 260.496" y="-428.809">90.3(2.1)</tspan></text><text id="text356" x="261.967" y="-428.809" transform="scale(1.0005362,-0.99946407)" style="font-variant:normal;font-weight:700;font-stretch:normal;font-size:5.29299116px;font-family:'HelveticaNeueLT Std';-inkscape-font-specification:HelveticaNeueLTStd-Bd;writing-mode:lr-tb;opacity:1;fill:#000;fill-opacity:1;fill-rule:nonzero;stroke:none;stroke-width:.88216513"><tspan style="opacity:1;stroke-width:.88216513" id="tspan354" x="261.967 265.889 269.711 273.633 277.65" y="-428.809">DRUGS</tspan></text><path id="path358" d="m 137.68547,426.363 h 8.82639 v 8.81692 h -8.82639 z" style="opacity:1;fill:none;stroke:#000;stroke-width:.4410826;stroke-linecap:butt;stroke-linejoin:miter;stroke-miterlimit:4;stroke-dasharray:none;stroke-opacity:1"/><path id="path360" d="m 225.82926,426.363 h 8.82638 v 8.81692 h -8.82638 z" style="opacity:1;fill:none;stroke:#000;stroke-width:.4410826;stroke-linecap:butt;stroke-linejoin:miter;stroke-miterlimit:4;stroke-dasharray:none;stroke-opacity:1"/><text id="text368" x="295.636" y="-529.414" transform="scale(1.0005362,-0.99946407)" style="font-variant:normal;font-weight:400;font-stretch:normal;font-size:5.29299116px;font-family:'HelveticaNeueLT Std';-inkscape-font-specification:HelveticaNeueLTStd-Roman;writing-mode:lr-tb;opacity:1;fill:#000;fill-opacity:1;fill-rule:nonzero;stroke:none;stroke-width:.88216513"><tspan style="opacity:1;stroke-width:.88216513" id="tspan362" x="295.636 300.246 301.617 305.438 309.064 313.087 316.125 317.496 320.439 325.049 326.52 330.342 334.365" y="-529.414">MICROFILM NO.</tspan><tspan style="opacity:1;stroke-width:.88216513" id="tspan364" x="249.73 253.551 256.981 260.803 262.274 266.096 269.917 274.527 278.153 281.387" y="-460.685">NSC NUMBER</tspan><tspan style="opacity:1;stroke-width:.88216513" id="tspan366" x="92.671 96.296 99.53 102.96 106.39 110.413" y="-439.597">REASON</tspan></text><text id="text372" x="92.669" y="-449.544" transform="scale(1.0005362,-0.99946407)" style="font-variant:normal;font-weight:500;font-stretch:normal;font-size:8.82165146px;font-family:'HelveticaNeueLT Std Med';-inkscape-font-specification:HelveticaNeueLTStd-Md;writing-mode:lr-tb;opacity:1;fill:#000;fill-opacity:1;fill-rule:nonzero;stroke:none;stroke-width:.88216513"><tspan style="opacity:1;stroke-width:.88216513" id="tspan370" x="92.669 95.121 124.55" y="-449.544">( )</tspan></text><text id="text376" x="240.613" y="-491.583" transform="scale(1.0005362,-0.99946407)" style="font-style:normal;font-variant:normal;font-weight:500;font-stretch:condensed;font-size:12.35031128px;font-family:'Fira Sans Condensed';-inkscape-font-specification:'Fira Sans Condensed, Medium Condensed';font-variant-ligatures:normal;font-variant-caps:normal;font-variant-numeric:normal;font-feature-settings:normal;text-align:start;writing-mode:lr-tb;text-anchor:start;opacity:1;fill:#000;fill-opacity:1;fill-rule:nonzero;stroke:none;stroke-width:.88216513"><tspan style="opacity:1;stroke-width:.88216513" id="tspan255" x="240.613" y="-491.583">BC</tspan></text><text id="text392" x="104.358" y="-408.038" transform="scale(1.0005362,-0.99946407)" style="font-variant:normal;font-weight:500;font-stretch:normal;font-size:7.9394865px;font-family:'HelveticaNeueLT Std Med';-inkscape-font-specification:HelveticaNeueLTStd-Md;writing-mode:lr-tb;opacity:1;fill:#000;fill-opacity:1;fill-rule:nonzero;stroke:none;stroke-width:.88216513"><tspan style="opacity:1;stroke-width:.88216513" id="tspan378" x="104.358 109.066 113.782 115.854 120.133 122.499 126.779 131.495 135.774 140.784 145.357 150.073 154.353 156.425 161.292 166.008 168.374 171.033 173.987 178.854 185.92 188.286 193.296 196.249 198.321 202.601 204.673 209.389 214.256 216.622 222.958 225.03 227.102 229.174 231.54 236.55 241.123 243.489 246.443 251.016 255.589 260.456 263.409 268.419 272.992 278.002 280.368 285.235 289.951 292.317 296.596 301.463 306.179 309.133 311.499 317.247 320.2 322.273 325.075 327.147 331.427 335.984" y="-408.038">This suspension from driving will be recorded on your British </tspan><tspan style="opacity:1;stroke-width:.88216513" id="tspan380" x="104.358 110.249 115.116 117.188 121.904 128.97 133.98 136.052 140.625 142.991 148.001 150.954 153.027 157.306 159.378 164.094 168.961 171.327 174.281 178.854 183.427 188.294 191.247 196.257 198.623 203.196 207.912 212.922 215.288 222.354 226.927 231.207 233.573 238.583 243.156 245.522 250.095 254.962 259.678 263.957 266.029 271.039 275.612 278.566 283.139 288.149 290.515 295.525 299.804 302.17 304.973 309.689 314.103" y="-398.51">Columbia driving record and may be considered by the </tspan><tspan style="opacity:1;stroke-width:.88216513" id="tspan382" x="104.358 109.661 114.377 119.387 123.96 126.914 128.986 133.702 136.505 141.078 145.794 150.804 155.377 160.093 162.895 165.261 170.128 172.788 175.154 182.371 187.238 190.041 194.907 197.861 200.227 205.237 209.81 214.526 216.598 221.171 223.243 227.817 232.096 234.462 240.798 245.514 250.087 254.803 257.169 260.122 264.696 268.975 271.047 275.62 281.956 284.028 288.744 293.611 295.977 300.256 305.123 309.839 312.793 315.159 320.169 323.122 325.194 329.474 331.546 336.262 340.97" y="-388.983">Superintendent of Motor Vehicles when reviewing your driving </tspan><tspan style="opacity:1;stroke-width:.88216513" id="tspan384" x="104.358 107.311 111.884 116.457 121.324 124.278 129.288 131.495" y="-379.456">record. </tspan><tspan style="opacity:1;stroke-width:.88216513" id="tspan386" x="104.358 109.582 115.695 121.507 127.176 129.462 134.099 136.385 142.197 147.278 153.09 158.902 163.983 166.27 171.057 177.171 179.457 185.269 190.938 193.224 198.155 203.236 205.523 207.809 213.033 215.32 221.132 226.213 231.882 236.963 242.632 247.856 250.142 255.367 261.178 266.403 271.778 276.859 282.671 288.482 293.563 299.375 301.662 307.473 313.285 319.097 324.178 329.768" y="-364.633">YOUR LICENCE TO DRIVE IS HEREBY SUSPENDED UNDER </tspan><tspan style="opacity:1;stroke-width:.88216513" id="tspan388" x="104.358 109.582 114.663 120.475 125.262 127.549 133.662 139.474 141.761 146.254 150.748 153.035 157.528 159.815 165.928 170.716 173.002 177.79 183.602 188.683 190.969 198.107 204.22 209.008 215.121 220.79 223.077 228.007 233.088 238.9 241.187 246.998 251.635 256.716 259.003 264.378 270.19 274.977 277.264 282.051 288.165 293.833 296.12 301.495 303.782 309.157 314.238 319.907 322.193 328.307 334.118 336.405 342.518 347.226" y="-355.105">SECTION 90.3 OF THE MOTOR VEHICLE ACT FOR A PERIOD OF </tspan><tspan style="opacity:1;stroke-width:.88216513" id="tspan390" x="104.358 108.851 113.345 115.632 121.443 127.557 133.368 139.037 144.261 146.548 152.36 158.473 165.611 172.748 177.83 183.641 189.453 191.74 197.551 203.657 205.943 211.318 216.106" y="-345.578">12 HOURS COMMENCING AT:</tspan></text><text id="text398" x="135.233" y="-328.643" transform="scale(1.0005362,-0.99946407)" style="font-variant:normal;font-weight:500;font-stretch:normal;font-size:7.05732107px;font-family:'HelveticaNeueLT Std Med';-inkscape-font-specification:HelveticaNeueLTStd-Md;writing-mode:lr-tb;opacity:1;fill:#000;fill-opacity:1;fill-rule:nonzero;stroke:none;stroke-width:.88216513"><tspan style="opacity:1;stroke-width:.88216513" id="tspan394" x="135.233 139.284 143.469 147.52 150.004 153.667 155.629 159.814 163.865 165.827 168.177 172.228 176.152 231.276 235.588 239.512 243.175 245.137 249.322 251.545 309.02 312.944 316.868 320.791" y="-328.643">hours on the day of Year</tspan><tspan style="opacity:1;stroke-width:.88216513" id="tspan396" x="100.391 104.965 106.926 112.283 117.378 121.436 125.621 130.717 135.685 140.131 142.093 147.457 151.642 153.604 158.311 162.757 167.725 172.298 177.662 182.757 184.719 189.427 194.522 199.356 204.452 209.815 216.477 220.528 224.974 230.07 235.426 237.388 242.483 247.84 249.802 254.375 259.47 264.044 268.751 273.197 278.292 282.865 284.827 290.191" y="-294.521">SIGNATURE OF PERSON ACKNOWLEDGING SUSPENSION</tspan></text><text id="text404" x="79.317" y="-665.496" transform="scale(1.1862458,-0.84299561)" style="font-variant:normal;font-weight:700;font-stretch:condensed;font-size:12.55084705px;font-family:'HelveticaNeueLT Std Cn';-inkscape-font-specification:HelveticaNeueLTStd-BdCn;writing-mode:lr-tb;opacity:1;fill:#000;fill-opacity:1;fill-rule:nonzero;stroke:none;stroke-width:1.04590392"><tspan style="font-style:normal;font-variant:normal;font-weight:600;font-stretch:condensed;font-size:12.35031223px;font-family:'Fira Sans Condensed';-inkscape-font-specification:'Fira Sans Condensed, Semi-Bold Condensed';font-variant-ligatures:normal;font-variant-caps:normal;font-variant-numeric:normal;font-feature-settings:normal;text-align:start;writing-mode:lr-tb;text-anchor:start;opacity:1;stroke-width:1.04590392" id="tspan249" x="79.317" y="-665.496">NOTICE OF 12-HOUR </tspan><tspan style="font-style:normal;font-variant:normal;font-weight:600;font-stretch:condensed;font-size:12.35031223px;font-family:'Fira Sans Condensed';-inkscape-font-specification:'Fira Sans Condensed, Semi-Bold Condensed';font-variant-ligatures:normal;font-variant-caps:normal;font-variant-numeric:normal;font-feature-settings:normal;text-align:start;writing-mode:lr-tb;text-anchor:start;opacity:1;stroke-width:1.04590392" id="tspan251" x="79.317" y="-649.745">LICENCE SUSPENSION</tspan></text><text id="text414" x="239.409" y="-80.12" transform="scale(1.0005362,-0.99946407)" style="font-variant:normal;font-weight:400;font-stretch:normal;font-size:5.29299116px;font-family:'HelveticaNeueLT Std';-inkscape-font-specification:HelveticaNeueLTStd-Roman;writing-mode:lr-tb;opacity:1;fill:#000;fill-opacity:1;fill-rule:nonzero;stroke:none;stroke-width:.88216513"><tspan style="opacity:1;stroke-width:.88216513" id="tspan412" x="239.409 242.839 246.073 249.699 253.129 257.152 260.973 264.403 267.346 269.701 273.131 302.925 307.536 310.965 312.336" y="-80.12">PERSONALLY MAIL</tspan></text><path id="path416" d="M 91.062758,421.59568 H 362.58345 V 526.42715 H 91.062758 Z" style="opacity:1;fill:none;stroke:#000;stroke-width:.4410826;stroke-linecap:butt;stroke-linejoin:miter;stroke-miterlimit:4;stroke-dasharray:none;stroke-opacity:1"/><g id="g418" transform="matrix(0.88299639,0,0,-0.88169241,226.87959,308.4287)"><path id="path420" d="m -153.812,290.562 h 307.5 v -45.063 h -307.5 z" style="opacity:1;fill:none;stroke:#000;stroke-width:.5;stroke-linecap:butt;stroke-linejoin:miter;stroke-miterlimit:4;stroke-dasharray:none;stroke-opacity:1"/></g><g id="g422"><g id="g424" clip-path="url(#clipPath428)"><text style="font-variant:normal;font-weight:700;font-stretch:normal;font-size:10px;font-family:'HelveticaNeueLT Std';-inkscape-font-specification:HelveticaNeueLTStd-Bd;writing-mode:lr-tb;fill:#231f20;fill-opacity:1;fill-rule:nonzero;stroke:none" id="text438" transform="matrix(1,0,0,-1,340.6965,568.9802)"><tspan id="tspan430" x="0 7.41 13.15 18.52 21.1 27.21 33.14 38.88 42.4 44.98 51.09 57.02 62.39 65.17" y="0">Designations: </tspan><tspan id="tspan432" x="0 5.56 13 19.49 25.97 33.38 40.79 43.57 49.68 57.46 60.24 63.19 70.6 77.64 85.05" y="14">1 SEND TO ICBC </tspan><tspan id="tspan434" x="0 5.56 13 20.41 27.63 30.58 36.88 43.36 50.58 53.36 60.77 68.55 75.22 81.89" y="26">2 DRIVER COPY </tspan><tspan id="tspan436" x="0 5.56 13 19.67 27.45 33.38 36.33 43.74 50.22 53 60.41 68.19 74.86" y="38">3 POLICE COPY</tspan></text></g></g><g id="g490" transform="matrix(0.87788086,0,0,0.79839193,411.14781,0.05146834)"><g id="g492"><g id="g494" clip-path="url(#clipPath498)"><g id="g500" transform="translate(-30.65,656.75)"><path style="opacity:1;fill:none;stroke:#000;stroke-width:.5;stroke-linecap:butt;stroke-linejoin:miter;stroke-miterlimit:4;stroke-dasharray:9.6,3.6;stroke-dashoffset:0;stroke-opacity:1" id="path502" d="M 0,0 H 36"/></g><g id="g504" transform="translate(329.5,656.75)"><path style="opacity:1;fill:none;stroke:#000;stroke-width:.5;stroke-linecap:butt;stroke-linejoin:miter;stroke-miterlimit:4;stroke-dasharray:9.6,3.6;stroke-dashoffset:0;stroke-opacity:1" id="path506" d="M 0,0 H 36"/></g><g id="g508" transform="translate(-30.8,44.75)"><path style="opacity:1;fill:none;stroke:#000;stroke-width:.5;stroke-linecap:butt;stroke-linejoin:miter;stroke-miterlimit:4;stroke-dasharray:9.6,3.6;stroke-dashoffset:0;stroke-opacity:1" id="path510" d="M 0,0 H 36"/></g><g id="g512" transform="translate(329.35,44.75)"><path style="opacity:1;fill:none;stroke:#000;stroke-width:.5;stroke-linecap:butt;stroke-linejoin:miter;stroke-miterlimit:4;stroke-dasharray:9.6,3.6;stroke-dashoffset:0;stroke-opacity:1" id="path514" d="M 0,0 H 36"/></g><text style="font-variant:normal;font-weight:700;font-stretch:normal;font-size:14px;font-family:'Helvetica 55 Roman';-inkscape-font-specification:HelveticaNeue-Bold;writing-mode:lr-tb;opacity:1;fill:#000;fill-opacity:1;fill-rule:nonzero;stroke:none" id="text518" transform="matrix(1,0,0,-1,97.8301,623.3521)"><tspan id="tspan516" x="0 4.13 16.828 26.166 37.058 46.914 54.432 64.022 74.396 82.95 86.842 97.216 108.108 116.662 120.792 131.166" y="0">IMPORTANT NOTICE</tspan></text><text style="font-variant:normal;font-weight:500;font-stretch:normal;font-size:12px;font-family:'Helvetica 65 Medium';-inkscape-font-specification:HelveticaNeue-Medium;writing-mode:lr-tb;opacity:1;fill:#000;fill-opacity:1;fill-rule:nonzero;stroke:none" id="text526" transform="matrix(1,0,0,-1,28.15,579.4019)"><tspan id="tspan520" x="0 8.448 15.12 18.456 27.792 34.464 38.904 45.792 52.464 59.796 63.132 67.128 74.016 80.688 84.684 88.02 90.912 94.692 98.028 104.256 111.372 118.26 121.596 128.928 133.152 136.044 142.272 148.944 152.28 158.952 162.288 172.728 179.844 183.84 190.956 195.18 198.516 204.744 211.416 218.304 221.196 227.868 230.76 237.432 240.768 250.104 256.992 259.884 262.776 269.448" y="0">Be warned that if you drive a motor vehicle while </tspan><tspan id="tspan522" x="0 6.228 13.116 19.344 26.676 33.348 40.236 47.568 54.24 61.572 64.908 68.244 72.24 79.128 85.8 89.136 92.916 100.032 102.924 105.816 112.932 122.268 125.16 132.048 139.164 142.5 148.728 155.4 162.072 166.068 168.96 176.076 182.964 186.3 193.416 197.196 200.532 204.528 211.416 218.088 221.424 232.092 239.208 243.204 250.32 254.544" y="14.004">suspended, the following section of the Motor </tspan><tspan id="tspan524" x="0 6.672 13.344 20.232 23.124 29.796 32.688 39.36 42.696 50.7 57.372 61.368 64.704 74.04 76.932 79.824 82.716 86.052 92.724 100.056 107.388 110.28 116.508" y="28.008">Vehicle Act will apply:</tspan></text><text style="font-variant:normal;font-weight:700;font-stretch:normal;font-size:11px;font-family:'Helvetica 55 Roman';-inkscape-font-specification:HelveticaNeue-Bold;writing-mode:lr-tb;opacity:1;fill:#000;fill-opacity:1;fill-rule:nonzero;stroke:none" id="text530" transform="matrix(1,0,0,-1,28.15,482.2019)"><tspan id="tspan528" x="0 8.151 12.43 15.268 20.988 23.826 30.349 37.07 40.128 50.512 57.035 59.873 62.711 69.025 72.083 79.222 85.745 91.652 98.373 104.687 111.21 117.931 124.245" y="0">Driving While Suspended</tspan></text><text style="font-variant:normal;font-weight:500;font-stretch:normal;font-size:10px;font-family:'Helvetica 65 Medium';-inkscape-font-specification:HelveticaNeue-Medium;writing-mode:lr-tb;opacity:1;fill:#000;fill-opacity:1;fill-rule:nonzero;stroke:none" id="text544" transform="matrix(1,0,0,-1,28.15,458.2019)"><tspan id="tspan532" x="0 5.56 11.12 13.9 19.46 22.24 25.02 30.58 33.36 39.6 46.27 49.05 55.16 60.72 64.24 69.43 75.36 81.1 83.88 91.66 97.4 103.33 106.11 111.85 117.78 120.19 126.3 131.49 134.27 139.83 142.61 148.72 152.24 154.65 159.84 165.4 168.92 170.96 176.15 178.93 181.34 183.75 189.31 194.87 200.61 206.17 211.73 214.51 220.44 226.18 228.96 236.74 242.48 244.89 250.45 256.19" y="0">90.4 (1) A person who holds a driver’s licence on which </tspan><tspan id="tspan534" x="39.6 45.16 47.94 53.5 59.43 65.17 71.28 73.69 77.02 79.43 85.36 91.1 93.88 99.62 105.18 110.37 113.15 119.26 124.82 130.38 136.12 138.9 141.31 150.01 156.12 162.05 167.24 172.8 178.91 181.69 187.43 193.17 199.28 204.84 208.36 211.14 216.33 221.89 227.45 230.78 233.19 239.12 244.86 247.64 253.2 258.76" y="12">a condition has been imposed under section 25 </tspan><tspan id="tspan536" x="39.6 42.38 47.94 53.5 56.28 61.84 64.62 67.4 72.96 78.89 87.59 96.29 98.7 102.03 107.22 110 115.56 121.3 124.08 130.01 132.98 136.13 141.69 147.43 152.99 158.55 161.33 163.74 166.89 169.67 173 178.74 184.3 187.08 193.19 198.75 202.27 207.46 213.39 219.13 221.91 228.02 231.54 233.95 239.14 244.7 249.89" y="24">(10.1) commits an offence if the person drives </tspan><tspan id="tspan538" x="39.6 45.16 47.94 56.64 62.57 65.9 71.83 75.35 78.13 83.32 88.88 94.62 97.03 102.59 105 110.56 113.34 119.27 125.01 127.79 133.35 136.13 141.87 144.28 150.21 155.95 163.73 169.29 174.48 177.26 183.19 186.71 189.49 191.9 197.64 203.75 209.49 214.68 218.01 221.53 223.94 229.5 231.91 234.69 238.03 243.96 249.52 255.63" y="36">a motor vehicle on a highway or industrial road </tspan><tspan id="tspan540" x="39.6 44.97 50.71 56.64 64.42 66.83 72.57 78.5 81.28 84.61 90.35 95.91 99.24 102.02 105.35 111.09 116.65 119.43 125.54 131.1 134.62 139.81 145.74 151.48 153.52 158.71 161.49 167.6 171.12 173.53 178.72 184.28 187.8 189.84 195.03 197.81 200.22 202.63 208.19 213.75 219.49 225.05 230.61 233.39 239.13 244.69 249.88 252.66 258.77 264.33 269.89 275.63" y="48">knowing that the person’s driver’s licence has been </tspan><tspan id="tspan542" x="39.6 44.79 50.53 55.72 61.83 67.39 73.13 79.24 84.8 90.91 93.69 99.43 105.17 111.28 116.84 120.36 123.14 128.33 133.89 139.45 142.78 145.19 151.12 156.86 159.64 165.2 170.76 173.54 179.1 181.88 187.81 191.33 194.11 199.67 205.23 208.01 213.57" y="60">suspended under section 90.1 or 90.3.</tspan></text></g></g></g></g></svg>